<?xml version="1.0" standalone="no"?>
<!DOCTYPE svg PUBLIC "-//W3C//DTD SVG 20010904//EN"
 "http://www.w3.org/TR/2001/REC-SVG-20010904/DTD/svg10.dtd">
<svg version="1.0" xmlns="http://www.w3.org/2000/svg"
 width="1948.000000pt" height="1948.000000pt" viewBox="0 0 1948.000000 1948.000000"
 preserveAspectRatio="xMidYMid meet">
<metadata>
Created by potrace 1.16, written by Peter Selinger 2001-2019
</metadata>
<g transform="translate(0.000000,1948.000000) scale(0.100000,-0.100000)"
fill="#000000" stroke="none">
<path d="M0 9740 l0 -9740 9740 0 9740 0 0 9740 0 9740 -9740 0 -9740 0 0
-9740z m11349 8229 c80 -5 160 -15 176 -21 17 -6 95 -14 175 -19 353 -20 449
-28 505 -44 39 -11 123 -20 240 -24 99 -5 193 -13 208 -20 33 -13 129 -15 172
-2 21 6 46 3 85 -10 62 -20 144 -23 209 -8 33 7 63 6 123 -6 63 -13 133 -16
326 -15 136 1 297 -3 357 -9 148 -13 307 -50 337 -77 13 -12 41 -31 64 -42 22
-11 82 -60 132 -108 84 -80 92 -91 92 -125 0 -21 -4 -41 -10 -44 -5 -3 -37
-10 -70 -16 -115 -18 -315 35 -382 102 -9 9 -34 20 -54 24 -35 6 -41 4 -66
-24 -21 -23 -36 -31 -61 -31 -59 0 -81 -49 -62 -140 6 -30 2 -41 -24 -74 -17
-22 -34 -51 -36 -65 -3 -14 -12 -47 -20 -72 -19 -60 -19 -147 0 -192 14 -35
16 -71 16 -347 0 -95 4 -140 18 -185 40 -126 53 -213 46 -293 -4 -52 -3 -87 6
-107 6 -16 17 -114 24 -216 19 -295 20 -296 305 -304 357 -9 385 -11 421 -30
27 -14 55 -17 134 -16 121 2 158 -13 193 -77 l24 -42 25 20 c15 12 41 20 62
20 37 0 79 -34 151 -121 17 -20 42 -42 57 -48 27 -11 66 -66 90 -126 22 -56
12 -125 -21 -147 -6 -4 -35 -8 -65 -8 -55 0 -137 25 -241 74 -30 14 -69 26
-86 26 -17 0 -46 11 -65 25 -71 52 -98 57 -191 40 -27 -5 -61 0 -125 18 -48
14 -126 33 -173 43 -47 9 -91 21 -99 28 -8 6 -54 11 -110 11 -59 0 -111 6
-133 15 -34 12 -41 12 -73 -3 -29 -14 -35 -22 -35 -49 0 -18 -8 -47 -19 -64
l-18 -30 34 -22 34 -23 -2 -83 c-1 -46 2 -89 6 -95 3 -7 6 -49 5 -94 -1 -77 0
-642 2 -772 1 -33 -1 -99 -3 -147 -4 -74 -8 -91 -28 -112 -20 -22 -24 -36 -25
-100 -1 -58 -5 -79 -20 -95 -24 -26 -74 -28 -82 -3 -4 9 -19 46 -35 81 -17 36
-29 81 -29 105 0 22 -12 68 -25 101 -14 33 -25 74 -25 91 0 17 -4 55 -10 85
-9 47 -25 262 -36 484 -2 39 -11 106 -19 150 -8 44 -17 143 -20 220 -2 86 -12
176 -24 235 -12 52 -21 114 -21 137 0 48 -28 83 -67 83 -13 0 -37 7 -53 15
-34 17 -213 44 -339 51 -45 2 -87 6 -91 9 -5 3 -78 12 -163 20 -102 9 -168 20
-193 32 -30 14 -68 18 -169 20 -71 1 -222 3 -335 6 -113 2 -263 5 -335 6 -201
4 -460 -8 -522 -24 -49 -13 -59 -13 -92 1 -20 8 -65 22 -100 30 -36 9 -76 23
-90 33 -14 10 -37 22 -51 26 -38 12 -79 43 -173 131 -66 61 -87 88 -87 107 0
14 5 29 11 33 22 13 85 7 124 -13 43 -22 210 -37 351 -34 40 1 108 -6 160 -18
94 -20 246 -41 308 -41 20 0 63 -9 95 -20 52 -18 78 -20 209 -17 82 2 154 7
159 10 6 4 14 71 18 154 6 120 5 161 -8 218 -23 98 -37 204 -37 272 0 32 -5
76 -10 98 -6 22 -17 135 -25 250 -10 156 -19 225 -34 269 -24 68 -41 190 -41
292 0 48 -6 86 -19 115 -11 24 -22 71 -26 104 -4 33 -20 90 -36 127 -16 36
-29 71 -29 77 0 25 -26 64 -53 77 -16 9 -69 20 -118 25 -50 5 -109 18 -132 28
-50 23 -155 51 -190 51 -14 0 -45 16 -69 35 -24 19 -63 45 -88 59 -25 13 -61
41 -79 61 -33 36 -34 38 -16 51 23 17 36 17 224 3z m-2014 -2650 c4 -12 7 -48
6 -80 0 -46 6 -69 30 -116 27 -51 30 -66 26 -118 -4 -64 18 -163 47 -207 20
-31 19 -218 -1 -218 -8 0 -13 15 -13 41 0 33 -6 47 -30 69 -17 16 -33 42 -36
59 -4 16 -15 38 -26 48 -19 17 -21 17 -51 0 -30 -18 -32 -18 -44 -1 -19 26
-16 46 18 110 29 56 30 63 24 139 -6 71 6 229 21 278 7 23 21 22 29 -4z m2526
-1898 c31 -5 74 -18 95 -29 21 -10 57 -25 79 -32 22 -7 51 -20 63 -28 129 -84
163 -95 287 -93 137 2 252 15 375 41 265 58 301 60 398 30 35 -11 76 -20 92
-20 15 0 33 -7 40 -15 7 -9 33 -20 57 -27 32 -8 51 -21 71 -47 33 -44 49 -58
87 -75 17 -7 44 -29 61 -48 45 -51 37 -91 -29 -159 l-52 -52 -6 -191 c-6 -195
-10 -214 -53 -274 -27 -36 -45 -144 -28 -165 6 -7 16 -33 22 -57 17 -67 74
-125 131 -134 25 -4 59 -15 76 -25 36 -22 177 -51 250 -51 48 0 150 28 205 56
58 30 125 27 252 -11 102 -30 130 -43 190 -89 39 -29 83 -61 98 -71 15 -9 30
-27 34 -38 4 -12 25 -39 47 -60 l41 -37 -17 -35 c-21 -43 -55 -61 -137 -69
-36 -4 -79 -11 -96 -17 -19 -6 -60 -6 -112 0 -53 6 -94 5 -120 -2 -32 -9 -55
-7 -123 11 -168 43 -306 72 -399 82 -52 5 -130 21 -173 35 -43 14 -85 25 -95
25 -9 0 -39 11 -67 25 -27 13 -54 25 -59 25 -5 0 -36 18 -70 41 -97 64 -195
190 -210 267 -3 19 -14 46 -25 60 -46 66 -53 325 -12 469 16 56 21 101 21 194
0 66 -4 129 -10 139 -14 26 -44 31 -240 40 -138 6 -188 13 -235 29 -36 13
-109 26 -184 33 -123 11 -125 10 -143 -12 -10 -12 -18 -36 -18 -54 0 -17 -5
-49 -11 -71 -23 -96 -27 -138 -13 -171 19 -46 17 -90 -6 -157 -11 -31 -20 -67
-20 -80 0 -13 -12 -46 -26 -73 -18 -33 -26 -63 -25 -94 0 -34 -7 -58 -33 -100
-18 -30 -37 -66 -41 -80 -21 -67 -134 -205 -190 -232 -22 -10 -54 -27 -72 -39
-19 -12 -52 -21 -85 -23 -29 -1 -63 -8 -76 -15 -16 -8 -27 -9 -42 -1 -36 19
-24 53 50 140 55 65 115 171 124 219 3 19 14 43 24 54 19 21 26 100 37 392 4
93 13 186 22 222 15 57 14 67 -1 121 -9 32 -16 83 -16 113 0 77 -23 146 -70
211 -22 31 -40 59 -40 62 0 12 57 35 75 30 11 -2 45 -9 76 -13z m-2050 -176
c6 -16 20 -51 30 -77 26 -64 24 -73 -18 -90 -86 -34 -200 -68 -229 -68 -66 0
-66 53 0 84 43 20 87 75 119 148 25 57 25 57 56 45 19 -7 34 -22 42 -42z m340
-1002 c64 -58 80 -98 99 -245 5 -43 19 -96 30 -117 13 -26 20 -60 20 -96 0
-31 7 -72 15 -92 8 -19 15 -54 15 -77 0 -22 9 -61 20 -85 11 -24 20 -60 20
-81 0 -23 8 -48 21 -64 l21 -26 -29 -35 c-17 -21 -43 -38 -68 -45 -22 -6 -47
-14 -55 -19 -25 -14 -23 -67 4 -127 23 -49 39 -119 66 -274 4 -25 14 -63 22
-85 9 -22 19 -60 22 -85 11 -66 56 -200 82 -241 12 -20 30 -72 39 -115 9 -44
22 -100 30 -126 7 -26 17 -84 21 -130 8 -94 15 -118 49 -168 22 -32 24 -44 22
-130 -2 -88 0 -98 23 -128 22 -31 25 -43 23 -119 -1 -70 -5 -91 -22 -114 -13
-17 -21 -43 -21 -68 0 -61 -16 -67 -151 -60 -89 4 -123 10 -155 27 -40 21
-119 33 -339 52 -49 5 -112 15 -139 24 -28 9 -102 18 -175 21 -140 6 -253 20
-321 40 -52 15 -213 27 -420 31 -86 1 -167 8 -200 17 -35 9 -81 13 -125 10
-39 -3 -108 1 -155 9 -62 11 -115 13 -197 7 -61 -4 -169 -6 -240 -5 -70 2
-152 -1 -182 -6 -114 -20 -268 43 -383 155 -111 108 -110 164 2 152 30 -4 120
-8 200 -11 80 -3 187 -12 237 -20 51 -7 140 -14 198 -14 156 0 164 12 146 225
-7 95 -18 155 -36 206 -14 40 -25 82 -25 94 0 37 -26 59 -91 76 -139 36 -215
63 -249 85 -19 13 -40 24 -46 24 -18 0 -144 126 -144 144 0 29 47 39 130 27
41 -6 95 -11 120 -11 25 -1 56 -7 70 -15 14 -8 42 -14 63 -15 69 0 95 55 83
173 -12 114 -22 166 -38 184 -8 10 -18 45 -22 78 -4 38 -16 74 -31 97 -14 21
-25 41 -25 46 0 4 -23 43 -51 86 -58 89 -56 101 19 101 72 0 278 -87 357 -150
22 -18 55 -40 72 -49 62 -31 66 -46 74 -281 10 -276 12 -281 140 -316 71 -20
77 -20 141 -4 46 11 100 15 172 13 148 -4 142 -14 137 215 -2 134 -7 189 -18
210 -9 18 -14 54 -13 95 2 94 -13 178 -50 274 -37 95 -32 128 17 128 71 -1
170 -22 203 -44 19 -13 50 -29 68 -36 17 -7 32 -16 32 -19 0 -4 19 -18 43 -31
23 -13 44 -27 47 -30 3 -4 32 -29 65 -55 33 -26 66 -55 73 -63 19 -25 14 -76
-14 -130 -23 -45 -27 -68 -35 -211 -12 -200 -8 -214 64 -219 32 -2 57 2 73 12
29 20 83 20 109 0 11 -8 37 -19 59 -25 25 -7 51 -25 75 -52 20 -23 51 -56 69
-73 46 -44 45 -91 -3 -133 -20 -17 -37 -31 -38 -32 -1 0 -69 -5 -152 -10 -283
-17 -282 -17 -304 -54 -14 -25 -20 -54 -21 -116 -3 -131 -6 -161 -23 -204 -10
-25 -16 -71 -17 -121 0 -127 -26 -120 384 -116 324 3 344 2 400 -17 33 -12 66
-21 73 -21 8 0 48 -13 90 -30 105 -42 109 -42 145 35 l30 65 -25 53 c-15 32
-43 68 -71 91 -54 43 -56 61 -20 123 30 51 26 87 -13 134 -19 22 -27 47 -33
97 -5 39 -20 92 -36 127 -23 48 -29 77 -32 145 -2 59 -9 96 -22 120 -23 45
-62 207 -55 231 4 10 -3 49 -14 87 -12 38 -21 81 -21 95 0 15 -13 41 -29 59
-16 18 -31 47 -35 63 -6 29 -4 32 46 55 42 20 58 34 76 70 13 25 30 52 38 61
19 22 18 59 -6 110 -11 24 -20 53 -20 65 0 11 -13 33 -30 49 -21 20 -33 46
-45 97 -8 38 -21 78 -28 89 -10 16 -9 25 6 50 24 43 21 107 -8 171 -39 84 -35
248 7 248 4 0 26 -17 49 -37z m2553 -412 c17 -10 47 -21 67 -25 21 -4 48 -16
62 -26 14 -11 44 -27 67 -35 63 -22 155 -81 175 -112 17 -26 17 -32 0 -139
-20 -124 -16 -248 10 -273 11 -12 66 -17 242 -25 269 -12 274 -12 693 -7 281
4 332 2 380 -12 30 -9 89 -23 130 -31 86 -16 177 -50 267 -98 81 -44 239 -174
253 -209 7 -15 22 -37 36 -50 16 -15 24 -33 24 -56 0 -39 -25 -93 -43 -94 -6
0 -34 -4 -62 -9 -37 -6 -59 -4 -85 7 -19 8 -86 21 -149 29 -70 10 -131 24
-155 36 -30 15 -71 23 -151 29 -119 8 -159 15 -190 35 -11 7 -47 15 -80 19
-33 4 -98 15 -145 25 -47 10 -116 21 -155 25 -38 4 -131 15 -205 26 -176 25
-191 24 -224 -6 -26 -24 -27 -28 -20 -87 4 -37 16 -74 29 -94 37 -55 159 -179
374 -381 52 -48 138 -130 190 -182 91 -88 185 -161 209 -161 9 0 124 -90 187
-147 39 -36 92 -71 136 -90 24 -11 81 -44 126 -74 122 -80 160 -103 248 -149
120 -63 158 -91 167 -125 10 -36 3 -86 -19 -137 l-16 -38 -127 0 c-96 0 -142
5 -186 19 -38 11 -105 20 -186 24 -107 5 -133 9 -175 31 -27 13 -66 28 -86 31
-28 6 -42 15 -53 37 -9 16 -59 73 -111 126 -53 54 -108 115 -122 137 -14 22
-35 51 -46 64 -52 62 -74 91 -115 151 -24 36 -48 67 -53 69 -4 1 -20 21 -35
43 -15 23 -38 58 -52 78 -14 21 -69 104 -123 185 -54 81 -115 166 -136 189
-20 22 -56 73 -79 111 -23 39 -62 85 -86 104 -23 18 -53 50 -66 71 -13 21 -36
45 -52 55 -28 16 -30 16 -50 -2 -18 -16 -20 -26 -14 -108 8 -101 20 -199 41
-325 8 -47 17 -112 21 -145 4 -33 11 -71 16 -84 16 -43 29 -154 38 -326 7
-134 14 -190 35 -265 23 -83 26 -106 20 -180 -10 -127 -13 -134 -77 -205 -74
-80 -105 -98 -156 -89 -60 11 -90 32 -113 77 -12 23 -27 49 -34 57 -22 25 -37
99 -41 197 -2 51 -8 110 -13 131 -15 61 -21 126 -30 332 -6 153 -11 202 -25
228 -15 29 -16 41 -6 88 10 46 9 61 -3 87 -10 21 -18 82 -22 172 -8 163 -17
191 -62 189 -32 -2 -80 -46 -142 -131 -15 -21 -54 -54 -86 -73 -31 -19 -86
-61 -121 -92 -35 -32 -67 -58 -72 -58 -5 0 -42 -26 -81 -59 -58 -47 -82 -60
-119 -65 -43 -6 -95 -33 -162 -84 -14 -10 -43 -25 -65 -32 -22 -7 -60 -23 -86
-36 -25 -12 -63 -25 -85 -29 -21 -4 -73 -17 -114 -30 -41 -13 -108 -26 -149
-30 -41 -4 -96 -15 -123 -26 -65 -25 -188 -24 -188 2 0 5 26 16 58 25 31 9 71
27 87 40 34 25 151 89 305 165 58 28 128 71 155 94 28 23 66 53 86 66 20 13
61 42 90 65 30 22 68 48 85 57 18 9 47 35 65 58 18 23 48 48 66 56 36 15 146
122 168 163 7 14 37 48 67 76 99 93 165 177 214 272 10 20 -24 62 -64 79 -32
14 -119 16 -642 18 l-605 1 -65 33 c-36 18 -76 44 -90 56 -14 13 -43 31 -65
40 -52 21 -133 120 -118 144 8 12 24 16 64 14 116 -3 226 -14 274 -27 35 -10
118 -14 279 -15 236 -1 355 -10 488 -37 48 -9 175 -18 345 -23 294 -9 299 -8
323 48 10 26 10 39 -6 83 -10 29 -21 91 -24 138 -5 63 -15 106 -39 165 -36 86
-44 152 -22 178 18 22 66 21 105 -2z m-5638 -112 c49 -23 108 -60 132 -81 24
-22 67 -50 96 -63 38 -17 63 -37 89 -73 94 -127 93 -191 -4 -300 -32 -36 -59
-71 -59 -77 0 -6 -14 -32 -30 -58 -17 -27 -35 -69 -41 -95 -5 -26 -16 -53 -24
-62 -7 -8 -31 -49 -52 -90 -22 -41 -55 -96 -74 -122 -75 -102 -109 -167 -109
-207 0 -56 20 -96 65 -129 75 -55 185 -177 206 -228 23 -55 28 -145 12 -209
-12 -47 -14 -96 -10 -224 4 -90 11 -168 16 -175 8 -10 18 -135 26 -350 2 -54
7 -106 11 -115 3 -9 8 -58 10 -109 2 -51 9 -111 14 -135 10 -39 19 -162 39
-542 5 -88 14 -184 21 -214 16 -69 2 -136 -46 -229 -19 -36 -39 -83 -46 -105
-15 -49 -58 -73 -111 -63 -44 8 -127 72 -154 118 -93 154 -148 292 -167 420
-15 95 -15 115 -2 195 8 48 14 138 14 198 0 61 5 178 11 260 26 358 33 533 21
555 -6 11 -18 128 -26 258 -27 445 -36 512 -76 533 -17 9 -30 4 -82 -32 -33
-23 -79 -63 -101 -88 -92 -106 -162 -174 -197 -192 -21 -11 -38 -24 -38 -29 0
-5 -20 -21 -44 -35 -24 -14 -54 -39 -68 -55 -13 -16 -44 -36 -67 -45 -23 -8
-61 -28 -84 -44 -23 -17 -60 -33 -82 -37 -34 -5 -44 -2 -60 16 l-20 23 30 21
c46 33 87 77 118 126 15 25 41 63 57 85 17 22 42 60 55 85 14 25 41 65 60 90
19 25 44 61 55 80 24 41 62 94 93 132 12 14 36 50 52 78 17 28 45 74 63 103
17 28 32 59 32 68 0 9 13 40 29 70 15 30 34 72 41 94 7 22 19 47 26 56 8 8 22
40 33 70 10 30 28 74 39 99 11 25 24 63 27 85 4 22 18 78 32 125 14 47 28 119
33 160 4 41 15 95 25 120 17 45 17 124 -1 246 -5 36 -3 44 21 63 39 30 70 26
171 -20z m1101 -2553 c45 -8 113 -25 150 -37 65 -21 83 -22 423 -20 475 1 537
4 588 24 38 15 46 16 71 2 16 -8 49 -19 75 -25 43 -9 132 -55 203 -103 17 -12
57 -37 88 -56 31 -19 69 -51 83 -70 15 -20 57 -66 94 -102 37 -37 70 -79 74
-93 8 -35 -13 -124 -39 -161 -13 -18 -26 -62 -35 -120 -24 -152 -24 -169 -8
-232 9 -33 16 -98 16 -143 0 -67 4 -89 21 -117 20 -33 27 -66 48 -249 5 -46
15 -81 29 -100 20 -27 22 -43 24 -214 3 -206 -2 -228 -66 -266 -17 -10 -44
-30 -59 -46 -16 -15 -33 -28 -38 -28 -6 0 -27 -11 -47 -25 -46 -31 -104 -33
-132 -5 -11 11 -20 26 -20 33 0 19 -62 137 -115 217 -23 36 -54 90 -69 120
-26 54 -45 92 -69 139 -28 56 -46 61 -257 66 -107 3 -287 10 -400 16 l-205 10
-27 -31 c-18 -20 -28 -42 -28 -62 0 -41 -43 -88 -81 -88 -51 0 -136 39 -166
76 -15 19 -40 49 -56 66 -37 42 -41 63 -33 177 8 116 -5 248 -39 398 -14 61
-25 127 -25 146 0 19 -7 52 -17 73 -11 26 -16 64 -15 114 2 70 -30 266 -48
300 -5 9 -16 51 -25 95 -9 44 -22 87 -29 95 -17 20 -23 39 -41 124 -19 91 -20
85 18 101 41 18 83 18 184 1z m-4398 -491 c56 -28 39 -105 -22 -105 -50 0
-197 -44 -216 -64 l-21 -22 20 -39 c11 -22 20 -52 20 -67 0 -41 29 -52 114
-43 39 5 88 8 109 7 41 -2 97 -26 97 -43 0 -16 -118 -66 -184 -78 -72 -13 -86
-24 -86 -66 0 -62 18 -94 61 -105 39 -11 60 -8 141 17 71 23 130 11 162 -31
34 -45 23 -53 -103 -72 -108 -16 -188 -44 -197 -69 -10 -26 5 -64 42 -105 33
-36 41 -40 85 -40 26 0 85 9 131 20 45 11 116 22 158 25 41 3 108 13 148 22
66 15 75 15 110 0 20 -9 55 -21 77 -28 49 -15 134 -57 158 -77 23 -20 22 -53
-4 -96 -19 -33 -20 -41 -9 -112 7 -42 18 -95 27 -118 22 -62 35 -258 21 -336
-10 -60 -24 -88 -93 -187 -17 -25 -71 -43 -128 -43 -44 0 -96 24 -116 54 -8
12 -37 42 -64 67 -37 35 -48 52 -45 70 3 24 4 24 93 21 l91 -3 31 39 c18 22
37 61 44 87 15 59 6 169 -21 253 -11 35 -20 80 -20 100 0 53 -19 113 -42 139
-11 12 -41 32 -66 43 -37 18 -49 19 -72 10 -16 -7 -55 -10 -87 -8 -66 3 -263
-16 -368 -38 -38 -7 -138 -22 -221 -33 -105 -13 -162 -25 -190 -40 -21 -12
-47 -21 -58 -21 -11 0 -44 -14 -74 -31 -64 -36 -91 -31 -142 23 -44 47 -59 87
-66 175 -3 43 -17 110 -30 150 -13 39 -24 82 -24 94 0 22 -21 91 -91 299 -15
47 -33 105 -40 130 -6 24 -27 68 -46 97 -34 51 -35 54 -19 78 19 29 37 30 121
10 33 -8 92 -15 130 -15 70 0 278 24 294 34 5 3 58 13 117 22 60 9 125 23 144
31 76 33 174 42 219 18z m335 -1231 c55 -30 67 -41 75 -71 17 -60 -30 -123
-82 -109 -12 3 -42 25 -67 48 -25 23 -60 52 -77 63 -18 11 -41 37 -52 57 -22
44 -20 45 76 47 54 1 71 -4 127 -35z m-402 -46 c56 -25 73 -39 89 -69 25 -50
24 -54 -11 -79 -28 -20 -34 -21 -63 -9 -70 28 -190 162 -155 173 7 3 20 7 28
9 29 10 44 7 112 -25z m-311 -74 c39 -38 48 -98 19 -129 -22 -23 -23 -23 -51
-6 -31 19 -99 82 -138 127 -67 80 88 87 170 8z m-392 9 c10 -21 28 -56 40 -78
15 -29 21 -57 21 -108 0 -62 -3 -71 -29 -98 -23 -22 -39 -29 -68 -29 -45 0
-60 9 -102 64 -41 51 -40 86 4 172 36 70 75 114 100 114 8 0 23 -17 34 -37z
m1296 -1048 c30 -9 62 -26 79 -44 l29 -30 -2 -128 c-2 -165 11 -290 33 -311
14 -14 41 -17 174 -17 l157 0 60 -34 c68 -40 135 -97 135 -116 0 -24 -42 -29
-266 -29 -180 -1 -224 -4 -239 -16 -16 -13 -17 -27 -11 -134 7 -105 11 -127
37 -178 22 -44 27 -63 19 -72 -6 -9 -46 -15 -108 -19 -75 -4 -109 -10 -152
-30 -75 -35 -139 -43 -177 -23 -39 20 -93 131 -100 206 -4 36 -14 66 -29 87
-13 17 -24 39 -24 48 0 8 -7 32 -15 51 l-15 36 -102 -7 c-137 -9 -140 -12
-126 -125 6 -54 19 -101 35 -133 17 -31 28 -74 33 -120 4 -40 14 -88 22 -107
8 -19 18 -51 22 -70 9 -51 53 -99 100 -110 42 -9 357 3 516 20 198 21 366 29
404 20 42 -9 94 -54 121 -104 15 -27 15 -35 3 -64 l-13 -32 -320 -5 c-514 -7
-569 -11 -641 -46 -98 -47 -179 -38 -257 30 -48 43 -65 94 -77 239 -7 82 -17
139 -30 170 -11 26 -29 90 -39 142 -20 99 -55 205 -74 229 -14 16 -140 9 -239
-14 -83 -19 -122 -7 -183 55 l-47 48 26 17 c16 11 61 20 123 26 177 16 196 20
226 47 17 16 25 32 22 42 -4 8 -11 38 -16 65 -5 28 -23 69 -39 92 -17 23 -30
46 -30 52 0 5 -13 24 -30 42 -22 25 -27 36 -18 46 16 19 86 16 122 -6 17 -10
57 -26 88 -35 70 -20 87 -42 98 -128 4 -35 16 -85 27 -113 l19 -50 65 -3 c81
-4 138 14 158 50 14 24 13 31 -6 75 -29 67 -53 144 -53 169 0 11 -11 35 -25
54 -14 19 -25 39 -25 45 0 7 -13 32 -30 56 -32 48 -38 85 -17 113 13 18 16 18
71 2 72 -21 123 -53 135 -86 44 -119 64 -197 79 -300 15 -101 45 -130 135
-130 32 0 78 5 102 11 37 9 46 16 55 44 8 25 8 45 0 76 -7 23 -10 65 -9 93 3
37 -2 59 -15 79 -11 17 -22 55 -25 95 -4 45 -13 77 -28 98 -29 40 -37 77 -23
104 10 19 17 21 53 15 23 -3 65 -13 92 -20z m7105 -96 c0 -3 19 -14 41 -25 39
-17 43 -17 70 -2 67 39 50 -32 -53 -229 -34 -63 -40 -68 -67 -45 -43 34 -78
274 -49 338 l12 26 23 -28 c13 -16 23 -32 23 -35z m-2059 -22 c77 -3 103 -8
125 -24 16 -11 47 -23 69 -27 22 -4 56 -16 75 -27 19 -10 47 -23 62 -29 20 -7
36 -26 57 -72 27 -58 29 -75 36 -223 5 -124 10 -168 24 -195 10 -19 21 -69 25
-110 5 -46 18 -100 36 -140 17 -41 30 -92 34 -139 4 -47 14 -86 26 -106 11
-18 27 -68 36 -111 9 -43 25 -93 35 -110 10 -17 19 -43 19 -57 0 -38 36 -93
71 -107 25 -11 38 -10 82 4 29 10 78 21 111 26 36 6 73 19 97 36 36 25 46 27
151 28 107 1 117 -1 178 -30 36 -17 85 -49 108 -70 37 -33 45 -47 49 -86 9
-81 2 -92 -82 -123 -57 -20 -91 -27 -147 -26 -40 0 -98 -6 -128 -15 -35 -10
-71 -14 -102 -10 -52 7 -167 -20 -212 -49 -31 -20 -32 -45 -7 -100 10 -22 21
-58 25 -79 4 -21 20 -62 36 -90 16 -28 44 -89 64 -136 41 -100 78 -172 112
-219 13 -19 24 -42 24 -51 0 -27 24 -41 59 -34 37 8 39 12 75 142 39 140 40
159 17 227 -36 108 -39 130 -26 162 10 23 21 31 50 36 20 3 48 2 61 -4 14 -5
38 -9 53 -9 49 0 184 -39 206 -60 12 -11 32 -20 46 -20 26 0 141 -76 171 -114
10 -11 18 -37 18 -57 0 -41 -36 -94 -132 -191 -32 -32 -58 -64 -58 -72 0 -7
-13 -30 -30 -51 -16 -21 -30 -42 -30 -48 0 -23 -79 -126 -152 -200 -65 -65
-78 -84 -78 -110 0 -21 7 -36 20 -45 11 -6 28 -27 37 -45 25 -46 103 -152 193
-259 41 -49 88 -108 104 -130 16 -22 44 -46 62 -54 20 -8 45 -32 60 -56 27
-42 62 -77 78 -78 4 0 21 -11 38 -25 16 -14 41 -25 54 -25 15 0 36 -12 52 -29
60 -66 144 -114 182 -106 53 12 64 43 76 212 2 35 14 87 25 115 12 29 27 89
33 133 8 59 15 80 26 80 11 0 18 -20 26 -70 6 -38 18 -84 27 -101 14 -28 26
-93 43 -234 3 -25 12 -58 19 -75 14 -29 50 -164 75 -275 7 -30 26 -82 42 -115
37 -74 48 -163 25 -199 -15 -22 -21 -24 -79 -20 -125 7 -228 23 -260 40 -17 9
-61 23 -96 30 -36 7 -78 24 -96 37 -17 13 -79 57 -138 96 -92 62 -293 234
-365 312 -12 13 -69 71 -126 129 -57 58 -124 131 -148 163 -24 32 -56 75 -72
95 -15 20 -34 52 -42 69 -7 18 -37 56 -64 83 -28 28 -51 57 -51 64 0 7 -9 21
-19 30 -25 23 -75 14 -111 -19 -14 -12 -60 -40 -102 -60 -43 -20 -83 -43 -89
-51 -6 -7 -27 -16 -48 -20 -32 -6 -68 -22 -135 -61 -11 -7 -31 -13 -44 -13
-12 0 -38 -6 -57 -14 -19 -8 -56 -18 -82 -21 -26 -4 -71 -11 -99 -17 -37 -8
-56 -7 -73 1 -29 16 -19 28 30 36 25 4 49 17 62 32 22 25 120 93 135 93 4 0
23 13 42 28 19 16 45 34 57 41 25 13 53 36 111 92 20 20 55 49 77 64 59 42
125 106 141 138 19 35 11 80 -21 122 -13 16 -26 44 -30 62 -3 18 -14 42 -24
55 -10 13 -25 43 -35 68 -10 25 -37 83 -62 129 -24 46 -51 109 -60 140 -9 31
-36 98 -60 150 -27 58 -47 116 -51 150 -13 118 -47 146 -171 142 -68 -2 -98
-8 -140 -28 -42 -20 -64 -24 -99 -20 -35 4 -67 -2 -129 -24 -46 -16 -99 -29
-118 -29 -18 0 -48 -10 -67 -22 -19 -13 -46 -29 -62 -37 -39 -20 -43 -51 -18
-134 13 -43 21 -100 21 -141 0 -113 36 -130 158 -77 37 16 93 32 124 36 34 4
68 15 84 27 26 21 27 21 40 3 33 -44 3 -92 -90 -149 -19 -12 -62 -40 -97 -64
-34 -24 -79 -52 -100 -62 -27 -14 -39 -28 -44 -50 -8 -39 3 -142 21 -194 8
-21 14 -61 14 -89 0 -76 20 -177 45 -227 12 -25 25 -69 29 -98 4 -30 16 -76
27 -104 17 -45 20 -69 16 -197 -3 -132 -6 -153 -32 -221 -40 -105 -84 -164
-155 -212 -59 -39 -64 -40 -120 -35 -52 4 -65 11 -122 57 -84 69 -95 79 -128
123 -15 20 -76 73 -136 117 -59 45 -136 108 -171 140 -35 33 -69 60 -75 60 -7
0 -7 4 1 14 21 25 69 25 188 1 128 -27 199 -31 236 -14 30 14 57 59 57 96 0
15 4 42 9 60 5 19 6 47 0 70 -4 21 -11 103 -14 181 -6 161 -19 208 -59 218
-40 10 -70 -2 -124 -51 -28 -25 -63 -51 -79 -58 -15 -6 -57 -33 -93 -60 -98
-72 -131 -94 -175 -118 -22 -12 -64 -42 -94 -67 -78 -67 -110 -89 -167 -116
-28 -13 -55 -29 -58 -35 -4 -6 -25 -11 -46 -11 -47 0 -113 41 -185 115 -27 28
-59 58 -70 66 -35 25 -101 112 -139 183 -32 62 -35 72 -22 90 17 26 103 50
229 66 86 10 300 71 364 103 15 8 43 17 60 20 18 4 53 15 77 26 24 11 65 25
92 31 27 6 59 18 71 26 13 8 52 20 88 28 36 8 83 25 103 40 21 14 46 26 56 26
71 0 116 118 70 185 -8 11 -14 41 -14 67 0 89 -18 146 -56 175 -34 25 -37 26
-92 14 -31 -7 -81 -24 -111 -37 -30 -13 -81 -31 -114 -40 -34 -8 -79 -25 -101
-36 -54 -28 -142 -28 -187 -1 -19 11 -52 26 -74 33 -111 35 -263 155 -304 240
l-18 38 23 10 c12 6 103 14 201 17 140 6 192 11 241 27 52 17 69 19 98 10 27
-8 48 -7 87 3 29 7 83 16 121 19 78 8 142 36 158 70 8 19 4 47 -22 138 -36
128 -74 232 -96 265 -21 34 -87 63 -139 63 -25 0 -71 -9 -103 -21 -73 -26
-190 -49 -251 -49 -47 0 -99 30 -86 50 3 5 29 16 58 26 28 9 84 36 122 59 39
23 81 46 95 50 59 17 174 91 228 145 142 144 171 180 187 232 8 28 15 60 15
70 0 56 112 61 213 8 31 -16 69 -30 82 -30 14 0 51 -13 82 -30 31 -16 61 -30
67 -30 6 -1 38 -21 71 -45 33 -25 77 -56 98 -70 32 -22 36 -28 27 -46 -17 -31
-67 -57 -143 -74 -39 -9 -86 -23 -106 -31 -20 -8 -56 -19 -81 -25 -74 -16 -95
-28 -108 -62 -12 -31 -12 -33 35 -72 27 -22 65 -56 86 -77 l38 -37 -3 -138
c-3 -153 8 -192 58 -215 22 -10 33 -8 79 16 42 23 60 28 90 23 37 -6 109 9
250 54 33 10 80 21 105 25 64 8 97 22 115 50 23 36 18 92 -15 159 -16 33 -30
68 -30 78 0 10 -13 52 -30 94 -16 41 -30 87 -30 101 0 15 -14 53 -30 84 -20
38 -32 79 -36 120 -4 35 -19 93 -35 130 -16 36 -29 74 -29 83 0 8 -9 33 -20
55 -11 22 -25 63 -31 92 -7 29 -25 78 -40 109 -16 31 -29 59 -29 62 0 5 -47
83 -98 161 -32 50 -74 98 -111 128 -15 13 -21 29 -21 57 0 49 14 59 83 55 29
-2 95 -5 148 -7z m981 -567 c32 -11 83 -20 115 -20 126 0 235 -20 293 -54 l55
-33 -2 -74 c-2 -83 -9 -105 -56 -168 -44 -60 -109 -94 -164 -87 -40 5 -131 51
-203 102 -58 42 -325 277 -324 286 1 4 2 19 3 33 0 16 9 29 24 35 35 16 194 3
259 -20z m-5791 -1302 c71 -17 88 -45 78 -130 -12 -104 18 -118 135 -63 45 21
67 25 153 25 109 0 124 -6 141 -57 15 -44 -7 -60 -97 -73 -40 -6 -80 -14 -89
-19 -9 -5 -73 -14 -141 -20 -68 -6 -127 -14 -132 -17 -25 -15 -70 -99 -82
-153 -17 -75 -30 -92 -53 -70 -10 11 -15 36 -15 79 -1 78 -11 105 -56 152
l-35 36 40 27 c46 30 58 73 35 126 -7 17 -20 57 -28 88 -13 51 -13 57 2 69 21
15 76 15 144 0z m-623 -161 c28 -10 38 -20 48 -52 17 -49 41 -93 66 -121 16
-18 25 -20 54 -14 26 6 39 4 56 -10 l22 -17 -25 -14 c-13 -8 -33 -19 -44 -25
-26 -15 -40 -71 -24 -103 21 -45 29 -94 17 -108 -27 -33 -69 -10 -120 66 -44
65 -115 68 -220 8 -24 -13 -71 -34 -106 -47 -62 -23 -63 -23 -100 -4 -44 23
-122 97 -122 117 0 32 35 48 88 41 37 -5 59 -2 84 10 18 10 76 21 129 26 53 4
106 13 117 19 31 17 13 56 -58 127 -33 32 -60 65 -60 72 0 6 10 22 21 33 19
19 28 21 81 15 33 -4 76 -13 96 -19z m416 -497 c87 -21 106 -34 135 -92 l19
-40 -30 -44 c-27 -41 -33 -44 -73 -44 -38 0 -49 5 -84 41 -22 23 -43 50 -46
60 -4 11 -10 19 -15 19 -5 0 -22 20 -38 44 l-30 45 21 15 c29 20 47 19 141 -4z
m865 -148 c81 -47 125 -98 115 -136 -3 -14 -14 -31 -24 -36 -9 -5 -132 -14
-271 -20 -148 -6 -281 -17 -319 -25 -36 -8 -109 -22 -163 -30 -54 -8 -106 -19
-117 -25 -19 -10 -18 -13 16 -58 68 -88 82 -94 256 -101 152 -6 153 -6 228
-45 41 -21 81 -45 88 -54 17 -22 15 -67 -5 -105 -12 -24 -19 -83 -29 -232 -8
-131 -17 -212 -27 -235 -8 -19 -18 -60 -22 -90 -6 -50 -26 -91 -79 -167 -9
-12 -41 -31 -71 -42 -52 -20 -58 -20 -86 -6 -30 16 -69 68 -69 94 0 16 -59 95
-113 154 l-36 38 26 10 c18 7 36 6 57 -2 17 -6 48 -15 68 -19 l37 -7 42 68
c55 91 69 144 68 253 -1 142 -11 185 -50 218 -35 30 -41 32 -204 67 -113 25
-115 25 -136 -54 -18 -65 -69 -177 -95 -208 -13 -16 -24 -39 -24 -52 0 -31
-103 -159 -211 -263 -13 -12 -28 -26 -34 -32 -33 -32 -84 -70 -94 -70 -6 0
-16 -9 -23 -20 -8 -12 -24 -20 -41 -20 l-27 0 19 38 c11 20 45 66 76 102 62
72 61 71 95 120 14 19 33 43 42 52 10 10 21 30 24 45 4 16 18 44 30 63 13 19
30 55 38 80 8 25 22 65 31 90 44 120 50 286 12 328 -14 15 -26 17 -80 12 -35
-4 -74 -14 -88 -23 -13 -9 -52 -20 -85 -26 -34 -5 -82 -18 -105 -29 -24 -11
-62 -25 -84 -31 -52 -14 -171 -13 -215 2 -32 11 -35 16 -32 47 1 19 5 36 7 38
2 3 51 9 107 14 66 6 133 19 188 38 47 16 123 34 170 41 47 6 95 18 108 26 13
8 56 20 95 28 40 7 86 18 102 23 17 6 80 21 140 33 61 12 121 27 135 34 14 7
61 18 103 24 43 6 99 22 125 35 26 13 77 29 115 35 37 6 80 17 95 23 26 11 92
25 122 26 8 1 44 -16 79 -36z"/>
<path d="M12455 17602 c-80 -59 -88 -74 -93 -166 -3 -56 0 -91 9 -107 21 -39
28 -99 18 -163 -17 -122 20 -159 139 -136 37 7 81 12 97 11 53 -4 79 -3 126 4
33 5 74 1 145 -16 96 -22 101 -24 160 -82 34 -33 65 -62 70 -66 5 -3 17 -20
27 -38 14 -25 15 -33 5 -40 -22 -14 -419 -12 -453 3 -16 6 -52 15 -80 19 -27
3 -80 14 -117 23 -64 15 -68 15 -87 -2 -19 -17 -20 -28 -17 -140 3 -92 10
-145 31 -221 15 -55 31 -108 37 -118 21 -40 112 -58 176 -36 22 7 36 7 51 0
11 -7 83 -17 159 -24 119 -12 147 -18 210 -47 89 -41 122 -76 122 -130 0 -21
-4 -42 -10 -45 -5 -3 -92 -7 -192 -7 -136 -1 -189 2 -208 12 -42 22 -191 49
-240 43 -62 -8 -103 -30 -95 -51 3 -9 11 -95 16 -192 11 -188 26 -265 60 -296
51 -46 234 -67 692 -80 303 -8 282 -20 272 161 -3 72 -15 198 -26 280 -11 83
-26 258 -35 390 -11 159 -20 245 -29 255 -11 13 -27 233 -25 365 0 22 -6 64
-14 92 -9 33 -12 76 -9 113 4 45 1 73 -15 117 -11 32 -23 74 -27 95 -3 20 -22
69 -43 109 -42 83 -49 86 -158 88 -40 1 -100 10 -135 21 -51 15 -107 21 -269
26 l-205 6 -40 -30z"/>
<path d="M8553 10340 c-45 -18 -55 -164 -18 -258 16 -40 55 -230 55 -266 0
-26 27 -41 87 -51 21 -3 58 -11 83 -16 66 -14 259 3 275 25 9 11 12 75 10 223
-2 224 -8 250 -61 320 -23 30 -30 33 -78 33 -30 0 -70 -7 -90 -15 -32 -14 -43
-14 -102 0 -72 17 -128 18 -161 5z"/>
<path d="M8650 8869 c-124 -12 -175 -22 -192 -37 -15 -13 -18 -32 -18 -116 0
-118 15 -225 35 -245 16 -16 35 -16 315 -7 113 4 214 8 225 8 11 0 49 -8 84
-17 83 -21 167 -78 182 -123 15 -45 -3 -87 -43 -101 -47 -17 -343 -14 -435 4
-110 21 -274 31 -300 17 -28 -15 -35 -63 -17 -114 8 -24 16 -86 18 -143 3
-113 18 -155 66 -180 16 -9 40 -13 52 -10 34 9 228 18 348 16 65 0 129 5 167
15 68 16 102 13 198 -16 33 -10 75 -22 93 -25 18 -4 40 -17 48 -31 24 -36 81
-34 95 4 11 29 -3 152 -24 202 -5 14 -11 75 -13 135 -6 275 -15 379 -35 407
-10 15 -19 43 -19 63 0 48 -21 96 -67 152 -52 63 -85 75 -238 84 -71 4 -157
15 -190 24 -84 24 -258 41 -335 34z"/>
<path d="M3042 8472 c-20 -2 -38 -12 -48 -27 -15 -23 -14 -32 4 -112 11 -49
30 -113 41 -143 11 -30 21 -71 21 -90 0 -19 9 -49 20 -67 10 -18 26 -70 34
-116 8 -45 23 -98 34 -117 11 -19 24 -52 27 -73 4 -21 15 -42 26 -47 32 -18
123 -11 197 15 39 14 82 25 95 25 30 0 52 39 43 77 -21 89 -43 103 -163 103
-48 0 -87 6 -109 16 -61 29 -46 38 90 53 48 6 95 16 103 23 11 9 14 26 11 67
-4 48 -10 59 -39 84 -34 29 -37 29 -144 28 -61 -1 -115 2 -122 7 -8 5 -10 17
-5 37 7 24 16 31 58 42 27 7 66 13 87 13 79 0 94 30 57 113 -31 70 -73 90
-190 92 -52 1 -110 0 -128 -3z"/>
<path d="M4070 5553 c-18 -12 -21 -23 -17 -52 7 -56 34 -139 64 -203 24 -51
32 -60 65 -69 31 -8 45 -6 73 7 57 27 73 54 68 116 -8 93 -24 158 -46 184 -20
22 -31 25 -104 29 -61 2 -86 -1 -103 -12z"/>
</g>
</svg>
